<svg xmlns="http://www.w3.org/2000/svg" xmlns:xlink="http://www.w3.org/1999/xlink" width="157.783" height="29.253" viewBox="0 0 157.783 29.253">
  <defs>
    <clipPath id="clip-path">
      <rect id="Rectangle_1" data-name="Rectangle 1" width="157.783" height="29.253" fill="none"/>
    </clipPath>
  </defs>
  <g id="Group_2" data-name="Group 2" transform="translate(0 0)">
    <g id="Group_1" data-name="Group 1" transform="translate(0 0)" clip-path="url(#clip-path)">
      <path id="Path_1" data-name="Path 1" d="M20.16,27.879c-.443-.109-.9-.167-1.365-.251-.005-.1-.014-.205-.015-.306s.009-.179.015-.281c.2-.032.376-.058.555-.089a4.543,4.543,0,0,0,.906-8.82,10.506,10.506,0,0,0-3.92-.622q-7.992,0-15.984,0H0v20.8c.112.005.2.013.291.013,5.42,0,10.84.016,16.26-.017a15.116,15.116,0,0,0,3-.342c2.61-.55,4.058-2.013,4.371-4.434a4.713,4.713,0,0,0-3.763-5.649M6.192,22.349c.122-.006.232-.016.343-.016,2.7,0,5.392-.008,8.088.008a4,4,0,0,1,1.211.193A1.367,1.367,0,0,1,16.8,23.9a1.448,1.448,0,0,1-.9,1.517,2.781,2.781,0,0,1-1.033.217c-2.845.017-5.69.01-8.536.01a1.229,1.229,0,0,1-.136-.019Zm10.153,11a3.219,3.219,0,0,1-.88.14c-3.043.011-6.087.007-9.131.007-.034,0-.068-.007-.14-.015v-3.62c.118-.006.228-.016.338-.016,2.894,0,5.789-.006,8.683.006A4.316,4.316,0,0,1,16.369,30a1.768,1.768,0,0,1-.024,3.345" transform="translate(0 -9.503)"/>
      <path id="Path_2" data-name="Path 2" d="M206.961,34.227A11.179,11.179,0,0,0,206,32.639a3.711,3.711,0,0,0-2.279-1.5c-.467-.1-.943-.166-1.433-.25v-.367l1.429-.492a6.028,6.028,0,0,0,2.294-1.393,6.118,6.118,0,0,0,1.75-4.479,6.179,6.179,0,0,0-3.052-5.445,10.435,10.435,0,0,0-5.276-1.2c-4.686-.018-9.372-.008-14.058-.009h-.264V38.3h6.415V31.327c1.693,0,3.355-.028,5.016.009a2.637,2.637,0,0,1,2.531,1.925c.619,1.6,1.317,3.177,1.967,4.769a.406.406,0,0,0,.451.295c2.331-.01,4.663-.006,6.995-.006h.333c-.037-.106-.058-.181-.09-.251-.587-1.283-1.157-2.573-1.773-3.842m-7.431-6.883a4.394,4.394,0,0,1-1.053.147c-2.366.013-4.732.008-7.1.009-.056,0-.112-.008-.2-.015v-5c.128-.006.239-.016.351-.016,2.228,0,4.456-.011,6.684.008a5.294,5.294,0,0,1,1.423.195,2.429,2.429,0,0,1-.107,4.671" transform="translate(-100.474 -9.501)"/>
      <path id="Path_3" data-name="Path 3" d="M305.482,33.384V29.938h12.534v-4.4H305.483V22.487H320.1V17.567H299.052V38.328H320.1V33.384Z" transform="translate(-162.315 -9.535)"/>
      <path id="Path_4" data-name="Path 4" d="M67.829,22.2a13.34,13.34,0,0,1,5.4-.181,7.168,7.168,0,0,1,3.559,1.446,3.615,3.615,0,0,1,1.276,1.673c.084.257.217.293.447.292,1.906-.007,3.812,0,5.719,0h.4c-.137-.529-.229-1-.384-1.457a9.6,9.6,0,0,0-.575-1.359,10.216,10.216,0,0,0-5.238-4.621,17.631,17.631,0,0,0-6.324-1.352,20.056,20.056,0,0,0-7.9,1c-4.675,1.7-7.068,5.2-7.193,9.4a9.677,9.677,0,0,0,3.508,8.1,12.139,12.139,0,0,0,4.75,2.414,22.427,22.427,0,0,0,10.269.229A12.825,12.825,0,0,0,81.4,35.1a9,9,0,0,0,3.2-5.645c-.029-.012-.039-.021-.05-.021-2.066-.006-4.133-.013-6.2-.007-.081,0-.181.125-.24.213A11.183,11.183,0,0,1,77.195,31,4.865,4.865,0,0,1,74.8,32.44a18.22,18.22,0,0,1-2.9.519,10.687,10.687,0,0,1-5.075-.646,5.2,5.2,0,0,1-2.787-7.367,5.713,5.713,0,0,1,3.79-2.748" transform="translate(-30.942 -9.011)"/>
      <path id="Path_5" data-name="Path 5" d="M141.261,17.549v.43q0,4.823,0,9.647a11.646,11.646,0,0,1-.08,1.377,4.618,4.618,0,0,1-3.384,3.9,8.473,8.473,0,0,1-4.259.031,4.2,4.2,0,0,1-3.261-2.989,8.014,8.014,0,0,1-.309-2.168c-.032-3.273-.014-6.546-.014-9.819V17.54h-6.423v.329c0,3.491-.007,6.982.007,10.474a14.346,14.346,0,0,0,.148,2.092,8.8,8.8,0,0,0,5.271,7.1,14.487,14.487,0,0,0,5.312,1.173,19.446,19.446,0,0,0,6.383-.585,9.223,9.223,0,0,0,5.52-3.9,9.882,9.882,0,0,0,1.508-5.363c.031-3.709.019-7.419.022-11.128a.961.961,0,0,0-.035-.184Z" transform="translate(-67.046 -9.52)"/>
      <path id="Path_6" data-name="Path 6" d="M255.6,17.494a.412.412,0,0,0-.462.324c-1.361,3.579-2.737,7.152-4.1,10.729a18.49,18.49,0,0,0-1.34,4.681c-.042.405-.05.814-.074,1.225-.116.006-.2.015-.275.013s-.15-.016-.249-.029a12.07,12.07,0,0,0-.945-4.675c-1.515-4.01-3.056-8.012-4.576-12.021-.086-.227-.219-.243-.417-.243q-3.273.007-6.546,0h-.334c.051.125.084.208.119.29q4.464,10.136,8.924,20.274a.377.377,0,0,0,.417.254c1.952-.007,3.9,0,5.857,0h1.7L262.469,17.5h-.358c-2.171,0-4.341.005-6.512-.007" transform="translate(-128.244 -9.495)"/>
      <path id="Path_7" data-name="Path 7" d="M313.353,0l-3.47.057,4.491,5.454,2.781.009Z" transform="translate(-168.193 0)" fill="#f82f8d"/>
    </g>
  </g>
</svg>
